<svg xmlns="http://www.w3.org/2000/svg" width="111" height="65" viewBox="0 0 111 65" fill="none"><path d="M2.39515 37.5213H6.52075C6.89978 37.5213 7.11845 37.1277 7.11845 36.6757C7.11845 36.2821 6.92894 35.8594 6.52075 35.8594H1.33095C0.908187 35.8594 0.5 36.0635 0.5 36.4571V45.9183C0.5 46.3119 0.908187 46.516 1.33095 46.516H6.52075C6.92894 46.516 7.11845 46.0932 7.11845 45.6996C7.11845 45.2477 6.89978 44.8541 6.52075 44.8541H2.39515V41.9239H4.61102C5.01921 41.9239 5.20872 41.5303 5.20872 41.195C5.20872 40.8013 4.99005 40.4369 4.61102 40.4369H2.39515V37.5213Z" fill="#EC565C"></path><path d="M14.7759 39.6497V45.9183C14.7759 46.3119 15.2424 46.516 15.7235 46.516C16.19 46.516 16.6711 46.3119 16.6711 45.9183V36.807C16.6711 36.1072 16.2046 35.8594 15.7235 35.8594C15.0383 35.8594 14.7176 36.0052 14.2366 36.8653L12.4434 40.1308L10.6503 36.8653C10.1693 36.0052 9.86312 35.8594 9.17795 35.8594C8.69687 35.8594 8.23038 36.1072 8.23038 36.807V45.9183C8.23038 46.3119 8.69687 46.516 9.17795 46.516C9.64445 46.516 10.1255 46.3119 10.1255 45.9183V39.5331L11.802 42.6819C11.9624 42.9735 12.1956 43.061 12.4289 43.061C12.6621 43.061 12.9099 42.9735 13.0703 42.6819L14.7759 39.6497Z" fill="#EC565C"></path><path d="M20.3188 37.5213H24.4444C24.8234 37.5213 25.0421 37.1277 25.0421 36.6757C25.0421 36.2821 24.8526 35.8594 24.4444 35.8594H19.2546C18.8318 35.8594 18.4237 36.0635 18.4237 36.4571V45.9183C18.4237 46.3119 18.8318 46.516 19.2546 46.516H24.4444C24.8526 46.516 25.0421 46.0932 25.0421 45.6996C25.0421 45.2477 24.8234 44.8541 24.4444 44.8541H20.3188V41.9239H22.5347C22.9429 41.9239 23.1324 41.5303 23.1324 41.195C23.1324 40.8013 22.9137 40.4369 22.5347 40.4369H20.3188V37.5213Z" fill="#EC565C"></path><path d="M26.154 45.9183C26.154 46.3119 26.6351 46.516 27.1016 46.516C27.5827 46.516 28.0492 46.3119 28.0492 45.9183V42.1134H29.2737L31.3438 46.1369C31.4896 46.4285 31.7374 46.5889 31.9998 46.5889C32.5538 46.5889 33.1807 46.0786 33.1807 45.5975C33.1807 45.5392 33.1661 45.4372 33.1078 45.3643L31.198 41.8218C32.2914 41.4865 33.1078 40.5827 33.1078 38.9062C33.1078 36.5883 31.5625 35.8594 29.6528 35.8594H26.7663C26.4019 35.8594 26.154 36.1364 26.154 36.4425V45.9183ZM29.6528 37.5213C30.6003 37.5213 31.2126 37.9295 31.2126 39.0811C31.2126 40.2328 30.6003 40.6264 29.6528 40.6264H28.0492V37.5213H29.6528Z" fill="#EC565C"></path><path d="M39.2934 38.9645C39.308 39.4164 39.7308 39.5622 40.241 39.5622C40.8679 39.5622 41.1886 39.3873 41.1886 38.6584C41.1886 36.909 39.7162 35.8594 37.7044 35.8594C35.853 35.8594 34.3515 36.7632 34.3515 39.1978V43.265C34.3515 45.6996 35.8384 46.6034 37.7627 46.6034C39.6871 46.6034 41.1886 45.6996 41.1886 43.265V41.5303C41.1886 41.2095 40.9699 40.918 40.5909 40.918H38.1126C37.7336 40.918 37.5295 41.297 37.5295 41.6615C37.5295 42.0405 37.7336 42.4049 38.1126 42.4049H39.2934V43.265C39.2934 44.4021 38.7103 44.9415 37.7627 44.9415C36.8006 44.9415 36.2466 44.4021 36.2466 43.265V39.1978C36.2466 38.0607 36.8006 37.5213 37.7773 37.5213C39.0165 37.5213 39.2497 38.2793 39.2934 38.9645Z" fill="#EC565C"></path><path d="M44.5919 37.5213H48.7175C49.0965 37.5213 49.3152 37.1277 49.3152 36.6757C49.3152 36.2821 49.1257 35.8594 48.7175 35.8594H43.5277C43.1049 35.8594 42.6967 36.0635 42.6967 36.4571V45.9183C42.6967 46.3119 43.1049 46.516 43.5277 46.516H48.7175C49.1257 46.516 49.3152 46.0932 49.3152 45.6996C49.3152 45.2477 49.0965 44.8541 48.7175 44.8541H44.5919V41.9239H46.8078C47.216 41.9239 47.4055 41.5303 47.4055 41.195C47.4055 40.8013 47.1868 40.4369 46.8078 40.4369H44.5919V37.5213Z" fill="#EC565C"></path><path d="M56.5499 46.516C57.0164 46.516 57.4975 46.3119 57.4975 45.9183V36.4425C57.4975 36.0343 57.0164 35.8594 56.5499 35.8594C56.0688 35.8594 55.6023 36.0343 55.6023 36.4425V42.3029L52.7888 36.8653C52.3369 36.0052 52.0599 35.8594 51.3747 35.8594C50.8936 35.8594 50.4271 36.0489 50.4271 36.4571V45.9183C50.4271 46.3119 50.8936 46.516 51.3747 46.516C51.8412 46.516 52.3223 46.3119 52.3223 45.9183V40.0579L55.4566 45.9183C55.7044 46.3702 56.098 46.516 56.5499 46.516Z" fill="#EC565C"></path><path d="M64.0936 38.9645C64.1082 39.4019 64.5018 39.5622 65.0412 39.5622C65.6826 39.5622 65.9888 39.3873 65.9888 38.6292C65.9888 36.9382 64.5456 35.8594 62.5192 35.8594C60.6824 35.8594 59.1517 36.7632 59.1517 39.1978V43.265C59.1517 45.6996 60.6678 46.6034 62.5046 46.6034C64.5456 46.6034 65.9888 45.4809 65.9888 43.717C65.9888 42.9735 65.6826 42.784 65.0266 42.784C64.531 42.784 64.1228 42.9298 64.0936 43.3817C64.0499 43.994 63.9333 44.9415 62.6067 44.9415C61.6008 44.9415 61.0468 44.4021 61.0468 43.265V39.1978C61.0468 38.0607 61.6008 37.5213 62.5775 37.5213C63.9624 37.5213 64.0645 38.5126 64.0936 38.9645Z" fill="#EC565C"></path><path d="M69.6305 45.9183C69.6305 46.3119 70.1115 46.516 70.578 46.516C71.0591 46.516 71.5256 46.3119 71.5256 45.9183V42.2446C71.5256 42.1717 71.5548 42.0988 71.5839 42.0551L74.587 36.8361C74.6307 36.7632 74.6307 36.6903 74.6307 36.6466C74.6307 36.1801 73.8873 35.8594 73.377 35.8594C73.0709 35.8594 72.9397 35.9906 72.8085 36.2384L70.578 40.4515L68.3622 36.2384C68.231 35.976 68.0852 35.8594 67.779 35.8594C67.2688 35.8594 66.5253 36.1801 66.5253 36.6466C66.5253 36.6903 66.5399 36.7632 66.5691 36.8361L69.5867 42.0551C69.6159 42.0988 69.6305 42.1717 69.6305 42.2446V45.9183Z" fill="#EC565C"></path><path d="M0.831055 53.7059C0.831055 53.8883 1.05399 53.9829 1.27018 53.9829C1.49311 53.9829 1.7093 53.8883 1.7093 53.7059V51.9426H2.27677L3.23608 53.8072C3.30364 53.9423 3.41849 54.0166 3.54009 54.0166C3.79681 54.0166 4.0873 53.7802 4.0873 53.5572C4.0873 53.5302 4.08055 53.4829 4.05352 53.4492L3.16853 51.8075C3.67521 51.6521 4.05352 51.2333 4.05352 50.4564C4.05352 49.3822 3.33742 49.0444 2.45242 49.0444H1.11479C0.945902 49.0444 0.831055 49.1728 0.831055 49.3147V53.7059ZM2.45242 49.8146C2.89154 49.8146 3.17528 50.0038 3.17528 50.5375C3.17528 51.0712 2.89154 51.2536 2.45242 51.2536H1.7093V49.8146H2.45242Z" fill="#2B4963"></path><path d="M6.98085 49.8146H8.89272C9.06837 49.8146 9.1697 49.6322 9.1697 49.4228C9.1697 49.2404 9.08188 49.0444 8.89272 49.0444H6.48769C6.29177 49.0444 6.10261 49.139 6.10261 49.3214V53.7059C6.10261 53.8883 6.29177 53.9829 6.48769 53.9829H8.89272C9.08188 53.9829 9.1697 53.7869 9.1697 53.6045C9.1697 53.3951 9.06837 53.2127 8.89272 53.2127H6.98085V51.8548H8.00772C8.19688 51.8548 8.2847 51.6724 8.2847 51.517C8.2847 51.3346 8.18337 51.1657 8.00772 51.1657H6.98085V49.8146Z" fill="#2B4963"></path><path d="M12.394 53.2532C11.7049 53.2532 11.5225 52.7331 11.2455 52.7331C11.0361 52.7331 10.8605 53.0168 10.8605 53.206C10.8605 53.5978 11.536 54.0437 12.421 54.0437C13.3533 54.0437 14.0289 53.5437 14.0289 52.5777C14.0289 50.8279 11.8603 51.1184 11.8603 50.2807C11.8603 49.9565 12.1373 49.7605 12.6237 49.7605C13.1912 49.7605 13.3466 50.0173 13.556 50.0173C13.7992 50.0173 13.9073 49.7065 13.9073 49.5511C13.9073 49.1052 13.0223 49.0107 12.6237 49.0107C11.8468 49.0107 10.9821 49.3552 10.9821 50.3618C10.9821 51.9629 13.1507 51.6521 13.1507 52.6655C13.1507 53.0708 12.7994 53.2532 12.394 53.2532Z" fill="#2B4963"></path><path d="M16.052 53.7059C16.052 53.8883 16.2681 53.9829 16.4911 53.9829C16.7073 53.9829 16.9302 53.8883 16.9302 53.7059V52.1386H17.6868C18.5786 52.1386 19.2744 51.7129 19.2744 50.605V50.5645C19.2744 49.4565 18.5989 49.0444 17.7409 49.0444H16.383C16.1803 49.0444 16.052 49.1728 16.052 49.3147V53.7059ZM17.6868 49.8146C18.126 49.8146 18.3962 50.0646 18.3962 50.5915V50.6726C18.3962 51.1995 18.126 51.4495 17.6868 51.4495H16.9302V49.8146H17.6868Z" fill="#2B4963"></path><path d="M22.7579 54.0234C23.6497 54.0234 24.3455 53.6045 24.3455 52.4763V50.5915C24.3455 49.4633 23.6497 49.0444 22.7579 49.0444C21.8662 49.0444 21.1771 49.4633 21.1771 50.5915V52.4763C21.1771 53.6045 21.8662 54.0234 22.7579 54.0234ZM23.4673 52.4763C23.4673 53.01 23.1971 53.2532 22.7579 53.2532C22.3121 53.2532 22.0554 53.01 22.0554 52.4763V50.5915C22.0554 50.0578 22.3121 49.8146 22.7579 49.8146C23.1971 49.8146 23.4673 50.0578 23.4673 50.5915V52.4763Z" fill="#2B4963"></path><path d="M29.3533 53.9829C29.5695 53.9829 29.7924 53.8883 29.7924 53.7059V49.3147C29.7924 49.1255 29.5695 49.0444 29.3533 49.0444C29.1304 49.0444 28.9142 49.1255 28.9142 49.3147V52.0305L27.6103 49.5106C27.4009 49.112 27.2726 49.0444 26.955 49.0444C26.7321 49.0444 26.5159 49.1323 26.5159 49.3214V53.7059C26.5159 53.8883 26.7321 53.9829 26.955 53.9829C27.1712 53.9829 27.3942 53.8883 27.3942 53.7059V50.9901L28.8466 53.7059C28.9615 53.9153 29.1439 53.9829 29.3533 53.9829Z" fill="#2B4963"></path><path d="M33.3153 53.2532C32.6262 53.2532 32.4438 52.7331 32.1668 52.7331C31.9574 52.7331 31.7818 53.0168 31.7818 53.206C31.7818 53.5978 32.4573 54.0437 33.3423 54.0437C34.2746 54.0437 34.9502 53.5437 34.9502 52.5777C34.9502 50.8279 32.7816 51.1184 32.7816 50.2807C32.7816 49.9565 33.0586 49.7605 33.545 49.7605C34.1125 49.7605 34.2679 50.0173 34.4773 50.0173C34.7205 50.0173 34.8286 49.7065 34.8286 49.5511C34.8286 49.1052 33.9436 49.0107 33.545 49.0107C32.7681 49.0107 31.9034 49.3552 31.9034 50.3618C31.9034 51.9629 34.072 51.6521 34.072 52.6655C34.072 53.0708 33.7207 53.2532 33.3153 53.2532Z" fill="#2B4963"></path><path d="M37.8515 49.8146H39.7634C39.939 49.8146 40.0404 49.6322 40.0404 49.4228C40.0404 49.2404 39.9525 49.0444 39.7634 49.0444H37.3583C37.1624 49.0444 36.9733 49.139 36.9733 49.3214V53.7059C36.9733 53.8883 37.1624 53.9829 37.3583 53.9829H39.7634C39.9525 53.9829 40.0404 53.7869 40.0404 53.6045C40.0404 53.3951 39.939 53.2127 39.7634 53.2127H37.8515V51.8548H38.8784C39.0675 51.8548 39.1554 51.6724 39.1554 51.517C39.1554 51.3346 39.054 51.1657 38.8784 51.1657H37.8515V49.8146Z" fill="#2B4963"></path><path d="M44.9549 53.9829C45.1035 53.9829 45.2184 53.9356 45.2522 53.8072L45.5089 52.9087H47.0559L47.3127 53.8072C47.3464 53.9356 47.4613 53.9829 47.6099 53.9829C47.8464 53.9829 48.1639 53.8275 48.1639 53.6181C48.1639 53.5978 48.1571 53.5775 48.1504 53.5505L46.8465 49.3012C46.7857 49.0985 46.5358 49.0039 46.279 49.0039C46.0291 49.0039 45.7791 49.0985 45.7183 49.3012L44.4145 53.5505C44.4077 53.5775 44.4009 53.6045 44.4009 53.6181C44.4009 53.8342 44.7185 53.9829 44.9549 53.9829ZM45.6913 52.2196L46.279 50.1456L46.8668 52.2196H45.6913Z" fill="#2B4963"></path><path d="M50.05 53.7059C50.05 53.8883 50.2662 53.9829 50.4892 53.9829C50.7053 53.9829 50.9283 53.8883 50.9283 53.7059V51.8548H51.9619C52.1511 51.8548 52.2321 51.6724 52.2321 51.517C52.2321 51.3346 52.1375 51.1657 51.9619 51.1657H50.9283V49.8146H52.7928C52.9685 49.8146 53.0631 49.6322 53.0631 49.4228C53.0631 49.2404 52.982 49.0444 52.7928 49.0444H50.4351C50.2392 49.0444 50.05 49.139 50.05 49.3214V53.7059Z" fill="#2B4963"></path><path d="M54.8994 53.7059C54.8994 53.8883 55.1223 53.9829 55.3385 53.9829C55.5614 53.9829 55.7776 53.8883 55.7776 53.7059V51.9426H56.3451L57.3044 53.8072C57.3719 53.9423 57.4868 54.0166 57.6084 54.0166C57.8651 54.0166 58.1556 53.7802 58.1556 53.5572C58.1556 53.5302 58.1488 53.4829 58.1218 53.4492L57.2368 51.8075C57.7435 51.6521 58.1218 51.2333 58.1218 50.4564C58.1218 49.3822 57.4057 49.0444 56.5207 49.0444H55.1831C55.0142 49.0444 54.8994 49.1728 54.8994 49.3147V53.7059ZM56.5207 49.8146C56.9598 49.8146 57.2436 50.0038 57.2436 50.5375C57.2436 51.0712 56.9598 51.2536 56.5207 51.2536H55.7776V49.8146H56.5207Z" fill="#2B4963"></path><path d="M60.1709 53.7059C60.1709 53.8883 60.3871 53.9829 60.61 53.9829C60.8262 53.9829 61.0492 53.8883 61.0492 53.7059V49.3147C61.0492 49.1255 60.8262 49.0444 60.61 49.0444C60.3871 49.0444 60.1709 49.1255 60.1709 49.3147V53.7059Z" fill="#2B4963"></path><path d="M65.5214 50.4834C65.5282 50.6861 65.7106 50.7604 65.9606 50.7604C66.2578 50.7604 66.3997 50.6793 66.3997 50.328C66.3997 49.5444 65.7309 49.0444 64.7918 49.0444C63.9406 49.0444 63.2313 49.4633 63.2313 50.5915V52.4763C63.2313 53.6045 63.9338 54.0234 64.7851 54.0234C65.7309 54.0234 66.3997 53.5032 66.3997 52.6858C66.3997 52.3412 66.2578 52.2534 65.9538 52.2534C65.7241 52.2534 65.5349 52.321 65.5214 52.5304C65.5012 52.8141 65.4471 53.2532 64.8324 53.2532C64.3662 53.2532 64.1095 53.0033 64.1095 52.4763V50.5915C64.1095 50.0646 64.3662 49.8146 64.8188 49.8146C65.4606 49.8146 65.5079 50.274 65.5214 50.4834Z" fill="#2B4963"></path><path d="M68.621 53.9829C68.7696 53.9829 68.8844 53.9356 68.9182 53.8072L69.1749 52.9087H70.722L70.9787 53.8072C71.0125 53.9356 71.1273 53.9829 71.276 53.9829C71.5124 53.9829 71.8299 53.8275 71.8299 53.6181C71.8299 53.5978 71.8232 53.5775 71.8164 53.5505L70.5126 49.3012C70.4518 49.0985 70.2018 49.0039 69.9451 49.0039C69.6951 49.0039 69.4452 49.0985 69.3844 49.3012L68.0805 53.5505C68.0738 53.5775 68.067 53.6045 68.067 53.6181C68.067 53.8342 68.3845 53.9829 68.621 53.9829ZM69.3573 52.2196L69.9451 50.1456L70.5328 52.2196H69.3573Z" fill="#2B4963"></path><path d="M73.6456 1.58702C73.6456 1.02982 74.0973 0.578125 74.6545 0.578125C75.2117 0.578125 75.6634 1.02982 75.6634 1.58702V23.3363L73.6456 22.1713V1.58702Z" fill="#EC565C"></path><path d="M69.8069 19.9547V2.06498C69.8069 1.50778 69.3552 1.05609 68.798 1.05609C68.2408 1.05609 67.7891 1.50779 67.7891 2.06498V19.3334C67.9918 19.1369 68.3076 19.0894 68.5648 19.2376L69.8069 19.9547Z" fill="#EC565C"></path><path d="M66.9002 20.8236V2.68644C66.9002 2.12924 66.4485 1.67754 65.8913 1.67754C65.3341 1.67754 64.8824 2.12924 64.8824 2.68643V24.3184L66.9002 20.8236Z" fill="#EC565C"></path><path d="M64.8824 25.5212C64.8952 25.53 64.9084 25.5383 64.9219 25.5462L66.9002 26.6883V28.2021C66.9002 28.7593 66.4485 29.211 65.8913 29.211C65.3341 29.211 64.8824 28.7593 64.8824 28.2021V25.5212Z" fill="#EC565C"></path><path d="M67.7891 27.2015L69.513 28.1968C69.3303 28.3804 69.0774 28.494 68.798 28.494C68.2408 28.494 67.7891 28.0423 67.7891 27.4851V27.2015Z" fill="#EC565C"></path><path d="M79.4158 46.3508V57.8781C79.4158 58.4353 79.8675 58.887 80.4247 58.887C80.9819 58.887 81.4336 58.4353 81.4336 57.8781V46.3508H79.4158Z" fill="#EC565C"></path><path d="M81.4336 13.9729H79.4158V6.65397C79.4158 6.09677 79.8675 5.64507 80.4247 5.64507C80.9819 5.64507 81.4336 6.09677 81.4336 6.65397V13.9729Z" fill="#EC565C"></path><path d="M78.6133 13.9729V5.36332C78.6133 4.80612 78.1616 4.35442 77.6044 4.35442C77.0472 4.35442 76.5955 4.80612 76.5955 5.36331V14.4076C76.6839 14.1546 76.9248 13.9729 77.2079 13.9729H78.6133Z" fill="#EC565C"></path><path d="M62.9846 2.39457C62.4274 2.39457 61.9757 2.84627 61.9757 3.40346V28.2021C61.9757 28.7593 62.4274 29.211 62.9846 29.211C63.5418 29.211 63.9935 28.7593 63.9935 28.2021V3.40347C63.9935 2.84627 63.5418 2.39457 62.9846 2.39457Z" fill="#EC565C"></path><path d="M59.069 4.16833C59.069 3.61113 59.5207 3.15943 60.0779 3.15943C60.6351 3.15943 61.0868 3.61113 61.0868 4.16833V28.489C61.0868 29.0462 60.6351 29.4979 60.0779 29.4979C59.5207 29.4979 59.069 29.0462 59.069 28.489V4.16833Z" fill="#EC565C"></path><path d="M57.1712 5.64507C56.614 5.64507 56.1623 6.09677 56.1623 6.65397V27.4852C56.1623 28.0423 56.614 28.494 57.1712 28.494C57.7284 28.494 58.1801 28.0423 58.1801 27.4851V6.65397C58.1801 6.09677 57.7284 5.64507 57.1712 5.64507Z" fill="#EC565C"></path><path d="M53.2556 10.0956C53.2556 9.53843 53.7073 9.08673 54.2645 9.08673C54.8217 9.08673 55.2734 9.53843 55.2734 10.0956V25.095C55.2734 25.6522 54.8217 26.1039 54.2645 26.1039C53.7073 26.1039 53.2556 25.6522 53.2556 25.095V10.0956Z" fill="#EC565C"></path><path d="M50.5889 17.337C50.5889 16.8461 50.9868 16.4481 51.4778 16.4481C51.9687 16.4481 52.3667 16.8461 52.3667 17.337V23.5593C52.3667 24.0503 51.9687 24.4483 51.4778 24.4483C50.9868 24.4483 50.5889 24.0503 50.5889 23.5593V17.337Z" fill="#EC565C"></path><path d="M70.6957 1.58702C70.6957 1.02982 71.1474 0.578125 71.7046 0.578125C72.2618 0.578125 72.7135 1.02982 72.7135 1.58702V21.5605L70.6957 20.316V1.58702Z" fill="#EC565C"></path><path d="M82.3223 46.352V63.3804C82.3223 63.9376 82.774 64.3893 83.3312 64.3893C83.8884 64.3893 84.3401 63.9376 84.3401 63.3804V45.8594C84.2705 46.1427 84.0155 46.352 83.7111 46.352H82.3223Z" fill="#2B4963"></path><path d="M84.3401 14.4671C84.2705 14.1841 84.0155 13.9742 83.7111 13.9742H82.3223V6.65518C82.3223 6.09799 82.774 5.64629 83.3312 5.64629C83.8884 5.64629 84.3401 6.09799 84.3401 6.65518V14.4671Z" fill="#2B4963"></path><path d="M85.229 37.0091V63.2025C85.229 63.7597 85.6807 64.2114 86.2379 64.2114C86.7951 64.2114 87.2468 63.7597 87.2468 63.2025V38.2543L85.229 37.0091Z" fill="#2B4963"></path><path d="M87.2468 22.0727L85.229 23.3179V5.66905C85.229 5.11185 85.6807 4.66016 86.2379 4.66016C86.7951 4.66016 87.2468 5.11185 87.2468 5.66905V22.0727Z" fill="#2B4963"></path><path d="M88.0925 30.5139V29.8131L90.1103 28.6481V31.6789L88.0925 30.5139Z" fill="#2B4963"></path><path d="M88.0925 38.7763V63.2025C88.0925 63.7597 88.5442 64.2114 89.1014 64.2114C89.6586 64.2114 90.1103 63.7597 90.1103 63.2025V40.0215L88.0925 38.7763Z" fill="#2B4963"></path><path d="M91.0423 40.5967V59.7934C91.0423 60.3506 91.494 60.8023 92.0512 60.8023C92.6084 60.8023 93.0601 60.3506 93.0601 59.7934V40.2687L92.7241 40.8506C92.5451 41.1606 92.1488 41.2672 91.8388 41.0882L91.0423 40.5967Z" fill="#2B4963"></path><path d="M93.949 38.7293L95.7185 35.6649C95.8047 35.516 95.8283 35.3378 95.7828 35.1734C95.7388 35.0074 95.6298 34.8659 95.4809 34.7796L93.949 33.8952V26.4318L95.4809 25.5474C95.6298 25.4611 95.7388 25.3196 95.7828 25.1536C95.8283 24.9876 95.8047 24.8102 95.7185 24.6613L93.949 21.5974V7.30641C93.949 6.74922 94.4007 6.29752 94.9579 6.29752C95.5151 6.29752 95.9668 6.74922 95.9668 7.30641V57.2982C95.9668 57.8554 95.5151 58.3071 94.9579 58.3071C94.4007 58.3071 93.949 57.8554 93.949 57.2982V38.7293Z" fill="#2B4963"></path><path d="M93.0601 20.0582V8.0158C93.0601 7.45861 92.6084 7.00691 92.0512 7.00691C91.494 7.00691 91.0423 7.4586 91.0423 8.0158V19.7303L91.8388 19.2388C92.1488 19.0598 92.5451 19.1664 92.7241 19.4764L93.0601 20.0582Z" fill="#2B4963"></path><path d="M91.0423 28.11V32.217L93.0601 33.382V26.945L91.0423 28.11Z" fill="#2B4963"></path><path d="M90.1103 20.3055V5.66905C90.1103 5.11185 89.6586 4.66016 89.1014 4.66016C88.5442 4.66016 88.0925 5.11185 88.0925 5.66905V21.5508L90.1103 20.3055Z" fill="#2B4963"></path><path d="M96.8557 16.1866C96.8557 15.6294 97.3074 15.1777 97.8646 15.1777C98.4218 15.1777 98.8735 15.6294 98.8735 16.1866V51.2556C98.8735 51.8128 98.4218 52.2645 97.8646 52.2645C97.3074 52.2645 96.8557 51.8128 96.8557 51.2556V16.1866Z" fill="#2B4963"></path><path d="M100.771 18.5538C100.214 18.5538 99.7624 19.0055 99.7624 19.5627V47.5372C99.7624 48.0944 100.214 48.5461 100.771 48.5461C101.329 48.5461 101.78 48.0944 101.78 47.5372V19.5627C101.78 19.0055 101.329 18.5538 100.771 18.5538Z" fill="#2B4963"></path><path d="M102.669 22.5962C102.669 22.039 103.121 21.5873 103.678 21.5873C104.235 21.5873 104.687 22.039 104.687 22.5962V33.8621C104.687 34.4193 104.235 34.871 103.678 34.871C103.121 34.871 102.669 34.4193 102.669 33.8621V22.5962Z" fill="#2B4963"></path><path d="M106.585 24.2293C106.028 24.2293 105.576 24.681 105.576 25.2382V30.8531C105.576 31.4103 106.028 31.862 106.585 31.862C107.142 31.862 107.594 31.4103 107.594 30.8531V25.2382C107.594 24.681 107.142 24.2293 106.585 24.2293Z" fill="#2B4963"></path><path d="M108.483 24.7244C108.483 24.1672 108.934 23.7155 109.491 23.7155C110.049 23.7155 110.5 24.1672 110.5 24.7244V28.3752C110.5 28.9324 110.049 29.3841 109.491 29.3841C108.934 29.3841 108.483 28.9324 108.483 28.3752V24.7244Z" fill="#2B4963"></path><path d="M84.1959 36.6178V35.7588L92.1904 40.3749C92.5013 40.5539 92.8976 40.4473 93.0766 40.1373L96.0032 35.0677C96.0645 35.1401 96.1101 35.2258 96.1353 35.3192C96.1499 35.3737 96.1572 35.4306 96.1572 35.4868C96.1572 35.5991 96.1279 35.7114 96.0702 35.8106L93.0766 40.9963C92.8976 41.3063 92.5013 41.4129 92.1904 41.2339L84.1959 36.6178Z" fill="#2B4963"></path><path d="M88.5819 29.8797L87.838 29.4502L95.8334 24.8341C95.8983 24.7963 95.9557 24.7478 96.0034 24.6914L96.0702 24.807C96.1279 24.9071 96.1572 25.0185 96.1572 25.1317C96.1572 25.1878 96.1499 25.2439 96.1353 25.2993C96.0905 25.4653 95.9815 25.6069 95.8334 25.6931L88.5819 29.8797Z" fill="#2B4963"></path><path d="M79.2685 18.5696C79.3347 17.4655 80.5905 16.8504 80.8121 18.3392C80.8782 18.7867 80.8853 19.874 80.8853 19.874C80.1228 19.8581 79.2685 20.2844 79.2685 20.2844V18.5696ZM80.2887 42.7197C80.2393 43.1769 80.0672 43.1707 80.0001 42.9121C79.926 42.6218 79.8368 41.9078 79.843 41.718C79.843 41.718 80.2702 41.5168 80.4017 41.4515C80.4017 41.4515 80.3134 42.492 80.2887 42.7197ZM79.3223 41.7057C79.047 41.7551 78.7231 41.7666 79.0558 41.6651C80.4361 41.2406 80.6479 40.6802 80.6479 40.6802L80.73 39.5805C81.9011 40.6652 80.2269 41.5442 79.3223 41.7057ZM79.6462 37.7254L80.6258 37.3485L80.4837 40.6678C80.4837 40.6678 80.2534 40.9758 79.7777 41.2212L79.6462 37.7254ZM80.1448 37.2576C78.6366 37.8401 79.5756 38.4641 79.5756 38.4641V39.5805C77.2165 37.758 78.6454 36.7237 80.1087 36.0671C81.4263 35.4766 80.8941 34.7874 80.8941 34.7874V33.3426C83.9469 35.1316 81.9435 36.5639 80.1448 37.2576ZM79.4 30.9297C79.8104 30.2899 80.895 29.6818 80.895 29.6818L80.6806 35.4272C80.4837 35.7882 79.5756 36.0838 79.5756 36.0838L79.4 30.9297ZM80.1369 30.0269C78.4477 31.266 79.3276 31.9147 79.3276 31.9147L79.3505 33.7362C76.5149 32.0912 77.6975 29.8133 79.3505 28.5821C81.0142 27.3439 81.0583 26.8585 81.0583 26.8585V25.2337C84.4685 27.3139 81.5552 28.9855 80.1369 30.0269ZM79.2685 28.418V22.0989C79.2685 22.0989 79.618 21.8765 80.3487 21.7388C80.3487 21.7388 80.4211 22.0168 80.895 22.1642V26.8753C80.895 26.8753 80.0072 28.057 79.2685 28.418ZM82.5189 22.0001C80.6064 22.4228 80.4176 21.557 80.4176 21.557C77.1512 22.3116 79.0884 23.8384 79.0884 23.8384V25.923C76.544 24.0193 76.8723 21.9506 78.4812 20.9004C80.0892 19.8502 81.2295 20.0302 81.4687 20.0796C82.2894 20.2482 83.4835 21.7865 82.5189 22.0001Z" fill="#EC565C"></path></svg>