<svg width="150" height="44" viewBox="0 0 150 44" fill="none" xmlns="http://www.w3.org/2000/svg">
<path d="M35.5572 5.91211C31.9123 5.91211 30.3125 7.7603 29.642 9.43603V6.34713H25.8496V23.5909H29.642V15.117C29.642 11.05 31.3816 9.10397 34.2085 9.10397C36.4787 9.10397 37.7679 10.2366 37.7679 13.5417V23.5909H41.5603V12.5944C41.5577 7.82981 39.202 5.91211 35.5572 5.91211Z" fill="#338F58"/>
<path d="M59.5247 15.0832C59.5247 9.48715 56.3795 5.90918 51.2202 5.90918C45.8202 5.90918 42.8691 9.81148 42.8691 15.0652C42.8691 20.3498 45.8591 23.9973 51.2668 23.9973C55.0593 23.9973 57.8706 22.0873 59.0407 18.7976H55.1628C54.3991 20.2339 53.009 21.1091 51.2694 21.1091C48.8179 21.1091 47.0085 19.3485 46.6564 16.1592H59.4859C59.4833 16.1643 59.5247 15.6675 59.5247 15.0832ZM46.6383 13.8348C46.9593 10.6995 48.7144 8.80502 51.2513 8.80502C53.6407 8.80502 55.3803 10.4807 55.7142 13.8348H46.6383Z" fill="#338F58"/>
<path d="M76.2413 0V10.0029H64.9883V0H60.9292V23.5914H64.9883V13.5886H76.2413V23.5914H80.3081V0H76.2413Z" fill="#338F58"/>
<path d="M98.3973 15.0832C98.3973 9.48715 95.2598 5.90918 90.0928 5.90918C84.7006 5.90918 81.7417 9.81148 81.7417 15.0652C81.7417 20.3498 84.7316 23.9973 90.1394 23.9973C93.9318 23.9973 96.7431 22.0873 97.9132 18.7976H94.0354C93.2717 20.2339 91.8816 21.1091 90.142 21.1091C87.6905 21.1091 85.8888 19.3485 85.5367 16.1592H98.3662C98.3662 16.1643 98.3973 15.6675 98.3973 15.0832ZM85.5212 13.8348C85.8344 10.6995 87.5895 8.80502 90.1265 8.80502C92.5158 8.80502 94.2554 10.4807 94.5894 13.8348H85.5212Z" fill="#338F58"/>
<path d="M114.596 19.0579V12.1749C114.596 8.57371 112.544 5.91211 107.252 5.91211C101.586 5.91211 99.9159 8.85429 99.745 11.328H103.39C103.669 9.65225 104.943 8.62005 107.299 8.62005C110.053 8.62005 110.92 10.1027 110.92 11.0963C110.92 13.5571 108.151 13.3692 105.161 13.8197C102.287 14.2547 99.0254 15.2329 99.0254 19.0888C99.0254 22.1932 101.164 24.0002 105.026 24.0002C108.233 24.0002 110.02 22.7286 111.019 21.2305C111.174 22.7595 111.441 23.5909 111.441 23.5909H115.148C115.15 23.5909 114.596 22.031 114.596 19.0579ZM110.92 15.915C110.92 19.3694 109.39 21.3772 106.144 21.3772C104.006 21.3772 102.89 20.4685 102.89 18.9164C102.89 17.1634 104.327 16.5817 105.88 16.2779C107.902 15.897 109.924 15.6344 110.923 14.6177V15.915H110.92Z" fill="#338F58"/>
<path d="M116.804 0V23.5914H120.612V0H116.804Z" fill="#338F58"/>
<path d="M132.692 9.46749V6.3477H128.633V0.350098L124.825 1.81732V6.35028H121.577V9.47007H124.823V17.7277C124.823 21.8643 126.291 23.7253 130.052 23.7253C131.152 23.7253 132.69 23.5632 132.69 23.5632V20.5206C132.69 20.5206 132.004 20.6673 131.23 20.6673C129.482 20.6673 128.631 19.8359 128.631 17.4008V9.47007H132.692V9.46749Z" fill="#338F58"/>
<path d="M143.699 5.91266C140.046 5.91266 138.423 7.77629 137.753 9.45201V0H133.96V23.5914H137.753V15.1176C137.753 11.0505 139.508 9.10451 142.335 9.10451C144.605 9.10451 145.941 10.2371 145.941 13.5422V23.5914H149.733V12.595C149.733 7.83035 147.344 5.91266 143.699 5.91266Z" fill="#338F58"/>
<path d="M12.8592 0.797519C8.3782 0.053609 3.82211 2.14891 1.54148 6.05122C0.159122 8.4271 -0.159286 11.0166 0.0659295 13.7426C0.573312 19.8741 5.38827 24.0029 10.7417 23.8536C13.949 23.8768 16.486 23.1483 18.5698 21.192C21.3242 18.6153 22.3467 15.3643 22.2768 11.6782C22.1629 6.01261 18.4715 1.72161 12.8592 0.797519ZM8.5594 16.2189C7.80351 15.6139 7.46698 14.8211 6.85087 14.2703C6.67225 14.1004 6.48328 13.758 6.2037 13.9974C5.98625 14.1828 6.23477 14.4324 6.35126 14.6178C6.81204 15.3385 7.30389 16.0464 7.60677 16.8521C7.71549 17.1327 7.8967 17.4493 7.6689 17.6912C7.3945 17.9795 7.05279 17.753 6.76286 17.6372C5.75586 17.2176 4.9922 16.5277 4.65567 15.4878C4.10945 13.8121 3.78846 12.0411 2.06439 10.839C5.96036 10.7772 8.74579 12.8108 8.5594 16.2189ZM10.8141 16.6436C10.6045 16.52 10.6977 16.2626 10.7598 16.0773C11.1274 14.9447 11.3138 13.7812 11.5001 12.6151C11.5545 12.2728 11.5856 11.933 11.6244 11.5906C11.5312 11.5752 11.438 11.552 11.3448 11.5366C10.8141 13.1197 10.2835 14.7027 9.66736 16.5432C9.12115 15.4492 9.04349 14.4865 8.9503 13.5624C8.59824 10.2341 9.72172 7.46182 12.2975 5.29702C13.0767 4.63805 13.3977 4.73072 13.7652 5.70887C15.2952 9.79909 14.2183 13.2509 11.3293 16.3862C11.1973 16.5355 11.0394 16.7697 10.8141 16.6436ZM19.3516 15.5959C18.0236 16.1004 17.0503 17.0168 16.1908 18.1031C15.1683 19.3901 13.874 20.1057 12.1629 19.8715C11.9299 19.8406 11.6788 19.8329 11.5467 19.5909C11.3992 19.3026 11.6555 19.1636 11.7875 18.986C12.2405 18.3579 12.8178 17.8611 13.5038 17.4802C13.9646 17.233 14.4331 16.9834 14.7438 16.5097C13.4727 16.5715 12.5356 17.4338 11.3966 17.8302C11.4044 16.605 12.8256 15.0451 14.3011 14.6101C16.0174 14.1055 17.7026 14.2754 19.3594 14.9138C19.5225 14.9756 19.7425 15.0142 19.7658 15.2098C19.7891 15.4646 19.5406 15.5264 19.3516 15.5959Z" fill="#338F58"/>
<path d="M0.7 41V33.8H1.51L4.23 39.535L6.935 33.8H7.755V40.995H6.91V35.755L4.465 41H3.99L1.545 35.755V41H0.7ZM11.497 41.15C10.967 41.15 10.5037 41.0333 10.107 40.8C9.7137 40.5633 9.40703 40.235 9.18703 39.815C8.96703 39.3917 8.85703 38.8983 8.85703 38.335C8.85703 37.745 8.96536 37.235 9.18203 36.805C9.3987 36.3717 9.70036 36.0383 10.087 35.805C10.477 35.5683 10.9337 35.45 11.457 35.45C12.0004 35.45 12.462 35.575 12.842 35.825C13.2254 36.075 13.512 36.4317 13.702 36.895C13.8954 37.3583 13.9787 37.91 13.952 38.55H13.052V38.23C13.042 37.5667 12.907 37.0717 12.647 36.745C12.387 36.415 12.0004 36.25 11.487 36.25C10.937 36.25 10.5187 36.4267 10.232 36.78C9.94536 37.1333 9.80203 37.64 9.80203 38.3C9.80203 38.9367 9.94536 39.43 10.232 39.78C10.5187 40.13 10.927 40.305 11.457 40.305C11.8137 40.305 12.1237 40.2233 12.387 40.06C12.6504 39.8967 12.857 39.6617 13.007 39.355L13.862 39.65C13.652 40.1267 13.3354 40.4967 12.912 40.76C12.492 41.02 12.0204 41.15 11.497 41.15ZM9.50203 38.55V37.835H13.492V38.55H9.50203ZM17.1852 41.15C16.6819 41.15 16.2502 41.025 15.8902 40.775C15.5302 40.5217 15.2519 40.18 15.0552 39.75C14.8619 39.32 14.7652 38.835 14.7652 38.295C14.7652 37.755 14.8619 37.27 15.0552 36.84C15.2519 36.41 15.5302 36.0717 15.8902 35.825C16.2502 35.575 16.6802 35.45 17.1802 35.45C17.6902 35.45 18.1186 35.5733 18.4652 35.82C18.8119 36.0667 19.0736 36.405 19.2502 36.835C19.4302 37.265 19.5202 37.7517 19.5202 38.295C19.5202 38.8317 19.4302 39.3167 19.2502 39.75C19.0736 40.18 18.8119 40.5217 18.4652 40.775C18.1186 41.025 17.6919 41.15 17.1852 41.15ZM17.2952 40.335C17.6586 40.335 17.9569 40.2483 18.1902 40.075C18.4236 39.8983 18.5952 39.6567 18.7052 39.35C18.8186 39.04 18.8752 38.6883 18.8752 38.295C18.8752 37.895 18.8186 37.5433 18.7052 37.24C18.5952 36.9333 18.4252 36.695 18.1952 36.525C17.9652 36.3517 17.6736 36.265 17.3202 36.265C16.9536 36.265 16.6502 36.355 16.4102 36.535C16.1736 36.715 15.9969 36.9583 15.8802 37.265C15.7669 37.5717 15.7102 37.915 15.7102 38.295C15.7102 38.6783 15.7686 39.025 15.8852 39.335C16.0019 39.6417 16.1769 39.885 16.4102 40.065C16.6469 40.245 16.9419 40.335 17.2952 40.335ZM18.8752 41V37.025H18.7752V33.8H19.6702V41H18.8752ZM21.1711 34.645V33.725H22.0611V34.645H21.1711ZM21.1711 41V35.6H22.0611V41H21.1711ZM25.8363 41.15C25.2897 41.15 24.8247 41.0283 24.4413 40.785C24.0613 40.5383 23.7713 40.2 23.5713 39.77C23.3713 39.34 23.268 38.85 23.2613 38.3C23.268 37.7367 23.373 37.2417 23.5763 36.815C23.783 36.385 24.078 36.05 24.4613 35.81C24.8447 35.57 25.3063 35.45 25.8463 35.45C26.4163 35.45 26.9063 35.59 27.3163 35.87C27.7297 36.15 28.0063 36.5333 28.1463 37.02L27.2663 37.285C27.153 36.9717 26.968 36.7283 26.7113 36.555C26.458 36.3817 26.1663 36.295 25.8363 36.295C25.4663 36.295 25.1613 36.3817 24.9213 36.555C24.6813 36.725 24.503 36.9617 24.3863 37.265C24.2697 37.565 24.2097 37.91 24.2063 38.3C24.213 38.9 24.3513 39.385 24.6213 39.755C24.8947 40.1217 25.2997 40.305 25.8363 40.305C26.1897 40.305 26.483 40.225 26.7163 40.065C26.9497 39.9017 27.1263 39.6667 27.2463 39.36L28.1463 39.595C27.9597 40.0983 27.668 40.4833 27.2713 40.75C26.8747 41.0167 26.3963 41.15 25.8363 41.15ZM29.1203 34.645V33.725H30.0103V34.645H29.1203ZM29.1203 41V35.6H30.0103V41H29.1203ZM35.3555 41V38.295C35.3555 38.0383 35.3322 37.7917 35.2855 37.555C35.2422 37.3183 35.1639 37.1067 35.0505 36.92C34.9405 36.73 34.7905 36.58 34.6005 36.47C34.4139 36.36 34.1772 36.305 33.8905 36.305C33.6672 36.305 33.4639 36.3433 33.2805 36.42C33.1005 36.4933 32.9455 36.6067 32.8155 36.76C32.6855 36.9133 32.5839 37.1067 32.5105 37.34C32.4405 37.57 32.4055 37.8417 32.4055 38.155L31.8205 37.975C31.8205 37.4517 31.9139 37.0033 32.1005 36.63C32.2905 36.2533 32.5555 35.965 32.8955 35.765C33.2389 35.5617 33.6422 35.46 34.1055 35.46C34.4555 35.46 34.7539 35.515 35.0005 35.625C35.2472 35.735 35.4522 35.8817 35.6155 36.065C35.7789 36.245 35.9072 36.4483 36.0005 36.675C36.0939 36.8983 36.1589 37.1267 36.1955 37.36C36.2355 37.59 36.2555 37.8083 36.2555 38.015V41H35.3555ZM31.5055 41V35.6H32.3055V37.045H32.4055V41H31.5055ZM39.8466 41.15C39.3166 41.15 38.8533 41.0333 38.4566 40.8C38.0633 40.5633 37.7566 40.235 37.5366 39.815C37.3166 39.3917 37.2066 38.8983 37.2066 38.335C37.2066 37.745 37.315 37.235 37.5316 36.805C37.7483 36.3717 38.05 36.0383 38.4366 35.805C38.8266 35.5683 39.2833 35.45 39.8066 35.45C40.35 35.45 40.8116 35.575 41.1916 35.825C41.575 36.075 41.8616 36.4317 42.0516 36.895C42.245 37.3583 42.3283 37.91 42.3016 38.55H41.4016V38.23C41.3916 37.5667 41.2566 37.0717 40.9966 36.745C40.7366 36.415 40.35 36.25 39.8366 36.25C39.2866 36.25 38.8683 36.4267 38.5816 36.78C38.295 37.1333 38.1516 37.64 38.1516 38.3C38.1516 38.9367 38.295 39.43 38.5816 39.78C38.8683 40.13 39.2766 40.305 39.8066 40.305C40.1633 40.305 40.4733 40.2233 40.7366 40.06C41 39.8967 41.2066 39.6617 41.3566 39.355L42.2116 39.65C42.0016 40.1267 41.685 40.4967 41.2616 40.76C40.8416 41.02 40.37 41.15 39.8466 41.15ZM37.8516 38.55V37.835H41.8416V38.55H37.8516ZM45.4548 41.145C44.8115 41.145 44.2832 41.005 43.8698 40.725C43.4598 40.4417 43.2082 40.0467 43.1148 39.54L44.0248 39.395C44.0982 39.6883 44.2665 39.9217 44.5298 40.095C44.7932 40.265 45.1198 40.35 45.5098 40.35C45.8798 40.35 46.1698 40.2733 46.3798 40.12C46.5898 39.9667 46.6948 39.7583 46.6948 39.495C46.6948 39.3417 46.6598 39.2183 46.5898 39.125C46.5198 39.0283 46.3748 38.9383 46.1548 38.855C45.9382 38.7717 45.6098 38.6717 45.1698 38.555C44.6932 38.4283 44.3182 38.2967 44.0448 38.16C43.7715 38.0233 43.5765 37.865 43.4598 37.685C43.3432 37.505 43.2848 37.2867 43.2848 37.03C43.2848 36.7133 43.3715 36.4367 43.5448 36.2C43.7182 35.96 43.9598 35.775 44.2698 35.645C44.5832 35.515 44.9465 35.45 45.3598 35.45C45.7698 35.45 46.1365 35.515 46.4598 35.645C46.7832 35.775 47.0432 35.96 47.2398 36.2C47.4398 36.4367 47.5582 36.7133 47.5948 37.03L46.6848 37.195C46.6415 36.905 46.5015 36.6767 46.2648 36.51C46.0315 36.3433 45.7298 36.255 45.3598 36.245C45.0098 36.2317 44.7248 36.2933 44.5048 36.43C44.2882 36.5667 44.1798 36.7517 44.1798 36.985C44.1798 37.115 44.2198 37.2267 44.2998 37.32C44.3832 37.4133 44.5348 37.5017 44.7548 37.585C44.9782 37.6683 45.3015 37.7633 45.7248 37.87C46.2015 37.99 46.5765 38.1217 46.8498 38.265C47.1265 38.405 47.3232 38.5717 47.4398 38.765C47.5565 38.955 47.6148 39.19 47.6148 39.47C47.6148 39.99 47.4232 40.4 47.0398 40.7C46.6565 40.9967 46.1282 41.145 45.4548 41.145Z" fill="#338F58"/>
<rect x="53" y="35.5" width="3" height="3" rx="1.5" fill="#DBDBDB"/>
<path d="M60.7 41V33.8H62.92C62.9933 33.8 63.1217 33.8017 63.305 33.805C63.4883 33.8083 63.6633 33.8217 63.83 33.845C64.3867 33.9183 64.8517 34.1217 65.225 34.455C65.6017 34.785 65.885 35.205 66.075 35.715C66.265 36.225 66.36 36.7867 66.36 37.4C66.36 38.0133 66.265 38.575 66.075 39.085C65.885 39.595 65.6017 40.0167 65.225 40.35C64.8517 40.68 64.3867 40.8817 63.83 40.955C63.6633 40.975 63.4867 40.9883 63.3 40.995C63.1167 40.9983 62.99 41 62.92 41H60.7ZM61.615 40.15H62.92C63.0467 40.15 63.1883 40.1467 63.345 40.14C63.5017 40.13 63.6383 40.115 63.755 40.095C64.1483 40.0217 64.4667 39.8567 64.71 39.6C64.9533 39.3433 65.1317 39.0233 65.245 38.64C65.3583 38.2567 65.415 37.8433 65.415 37.4C65.415 36.9467 65.3567 36.5283 65.24 36.145C65.1267 35.7617 64.9483 35.4433 64.705 35.19C64.4617 34.9367 64.145 34.775 63.755 34.705C63.6383 34.6817 63.5 34.6667 63.34 34.66C63.18 34.6533 63.04 34.65 62.92 34.65H61.615V40.15ZM69.8066 41.15C69.27 41.15 68.8066 41.0283 68.4166 40.785C68.03 40.5417 67.7316 40.205 67.5216 39.775C67.3116 39.345 67.2066 38.8517 67.2066 38.295C67.2066 37.7283 67.3133 37.2317 67.5266 36.805C67.74 36.3783 68.0416 36.0467 68.4316 35.81C68.8216 35.57 69.28 35.45 69.8066 35.45C70.3466 35.45 70.8116 35.5717 71.2016 35.815C71.5916 36.055 71.89 36.39 72.0966 36.82C72.3066 37.2467 72.4116 37.7383 72.4116 38.295C72.4116 38.8583 72.3066 39.355 72.0966 39.785C71.8866 40.2117 71.5866 40.5467 71.1966 40.79C70.8066 41.03 70.3433 41.15 69.8066 41.15ZM69.8066 40.305C70.3666 40.305 70.7833 40.1183 71.0566 39.745C71.33 39.3717 71.4666 38.8883 71.4666 38.295C71.4666 37.685 71.3283 37.2 71.0516 36.84C70.775 36.4767 70.36 36.295 69.8066 36.295C69.43 36.295 69.12 36.38 68.8766 36.55C68.6333 36.72 68.4516 36.955 68.3316 37.255C68.2116 37.555 68.1516 37.9017 68.1516 38.295C68.1516 38.9017 68.2916 39.3883 68.5716 39.755C68.8516 40.1217 69.2633 40.305 69.8066 40.305ZM75.7875 41.15C75.2408 41.15 74.7758 41.0283 74.3925 40.785C74.0125 40.5383 73.7225 40.2 73.5225 39.77C73.3225 39.34 73.2192 38.85 73.2125 38.3C73.2192 37.7367 73.3242 37.2417 73.5275 36.815C73.7342 36.385 74.0292 36.05 74.4125 35.81C74.7958 35.57 75.2575 35.45 75.7975 35.45C76.3675 35.45 76.8575 35.59 77.2675 35.87C77.6808 36.15 77.9575 36.5333 78.0975 37.02L77.2175 37.285C77.1042 36.9717 76.9192 36.7283 76.6625 36.555C76.4092 36.3817 76.1175 36.295 75.7875 36.295C75.4175 36.295 75.1125 36.3817 74.8725 36.555C74.6325 36.725 74.4542 36.9617 74.3375 37.265C74.2208 37.565 74.1608 37.91 74.1575 38.3C74.1642 38.9 74.3025 39.385 74.5725 39.755C74.8458 40.1217 75.2508 40.305 75.7875 40.305C76.1408 40.305 76.4342 40.225 76.6675 40.065C76.9008 39.9017 77.0775 39.6667 77.1975 39.36L78.0975 39.595C77.9108 40.0983 77.6192 40.4833 77.2225 40.75C76.8258 41.0167 76.3475 41.15 75.7875 41.15ZM82.133 41C81.813 41.0633 81.4963 41.0883 81.183 41.075C80.873 41.065 80.5963 41.0033 80.353 40.89C80.1096 40.7733 79.9246 40.5933 79.798 40.35C79.6913 40.1367 79.633 39.9217 79.623 39.705C79.6163 39.485 79.613 39.2367 79.613 38.96V34.1H80.503V38.92C80.503 39.14 80.5046 39.3283 80.508 39.485C80.5146 39.6417 80.5496 39.7767 80.613 39.89C80.733 40.1033 80.923 40.2283 81.183 40.265C81.4463 40.3017 81.763 40.2917 82.133 40.235V41ZM78.518 36.335V35.6H82.133V36.335H78.518ZM85.3047 41.15C84.768 41.15 84.3047 41.0283 83.9147 40.785C83.528 40.5417 83.2297 40.205 83.0197 39.775C82.8097 39.345 82.7047 38.8517 82.7047 38.295C82.7047 37.7283 82.8114 37.2317 83.0247 36.805C83.238 36.3783 83.5397 36.0467 83.9297 35.81C84.3197 35.57 84.778 35.45 85.3047 35.45C85.8447 35.45 86.3097 35.5717 86.6997 35.815C87.0897 36.055 87.388 36.39 87.5947 36.82C87.8047 37.2467 87.9097 37.7383 87.9097 38.295C87.9097 38.8583 87.8047 39.355 87.5947 39.785C87.3847 40.2117 87.0847 40.5467 86.6947 40.79C86.3047 41.03 85.8414 41.15 85.3047 41.15ZM85.3047 40.305C85.8647 40.305 86.2814 40.1183 86.5547 39.745C86.828 39.3717 86.9647 38.8883 86.9647 38.295C86.9647 37.685 86.8264 37.2 86.5497 36.84C86.273 36.4767 85.858 36.295 85.3047 36.295C84.928 36.295 84.618 36.38 84.3747 36.55C84.1314 36.72 83.9497 36.955 83.8297 37.255C83.7097 37.555 83.6497 37.9017 83.6497 38.295C83.6497 38.9017 83.7897 39.3883 84.0697 39.755C84.3497 40.1217 84.7614 40.305 85.3047 40.305ZM89.0105 41V35.6H89.8055V36.905L89.6755 36.735C89.7389 36.5683 89.8205 36.415 89.9205 36.275C90.0239 36.135 90.1389 36.02 90.2655 35.93C90.4055 35.8167 90.5639 35.73 90.7405 35.67C90.9172 35.61 91.0972 35.575 91.2805 35.565C91.4639 35.5517 91.6355 35.5633 91.7955 35.6V36.435C91.6089 36.385 91.4039 36.3717 91.1805 36.395C90.9572 36.4183 90.7505 36.5 90.5605 36.64C90.3872 36.7633 90.2522 36.9133 90.1555 37.09C90.0622 37.2667 89.9972 37.4583 89.9605 37.665C89.9239 37.8683 89.9055 38.0767 89.9055 38.29V41H89.0105ZM94.5857 41.145C93.9424 41.145 93.414 41.005 93.0007 40.725C92.5907 40.4417 92.339 40.0467 92.2457 39.54L93.1557 39.395C93.229 39.6883 93.3974 39.9217 93.6607 40.095C93.924 40.265 94.2507 40.35 94.6407 40.35C95.0107 40.35 95.3007 40.2733 95.5107 40.12C95.7207 39.9667 95.8257 39.7583 95.8257 39.495C95.8257 39.3417 95.7907 39.2183 95.7207 39.125C95.6507 39.0283 95.5057 38.9383 95.2857 38.855C95.069 38.7717 94.7407 38.6717 94.3007 38.555C93.824 38.4283 93.449 38.2967 93.1757 38.16C92.9024 38.0233 92.7074 37.865 92.5907 37.685C92.474 37.505 92.4157 37.2867 92.4157 37.03C92.4157 36.7133 92.5024 36.4367 92.6757 36.2C92.849 35.96 93.0907 35.775 93.4007 35.645C93.714 35.515 94.0774 35.45 94.4907 35.45C94.9007 35.45 95.2674 35.515 95.5907 35.645C95.914 35.775 96.174 35.96 96.3707 36.2C96.5707 36.4367 96.689 36.7133 96.7257 37.03L95.8157 37.195C95.7724 36.905 95.6324 36.6767 95.3957 36.51C95.1624 36.3433 94.8607 36.255 94.4907 36.245C94.1407 36.2317 93.8557 36.2933 93.6357 36.43C93.419 36.5667 93.3107 36.7517 93.3107 36.985C93.3107 37.115 93.3507 37.2267 93.4307 37.32C93.514 37.4133 93.6657 37.5017 93.8857 37.585C94.109 37.6683 94.4324 37.7633 94.8557 37.87C95.3324 37.99 95.7074 38.1217 95.9807 38.265C96.2574 38.405 96.454 38.5717 96.5707 38.765C96.6874 38.955 96.7457 39.19 96.7457 39.47C96.7457 39.99 96.554 40.4 96.1707 40.7C95.7874 40.9967 95.259 41.145 94.5857 41.145Z" fill="#338F58"/>
<rect x="102" y="35.5" width="3" height="3" rx="1.5" fill="#DBDBDB"/>
<path d="M109.8 41V33.8H110.69V40.155H114.03V41H109.8ZM116.411 41.15C116.007 41.15 115.669 41.0767 115.396 40.93C115.126 40.78 114.921 40.5833 114.781 40.34C114.644 40.0967 114.576 39.83 114.576 39.54C114.576 39.2567 114.629 39.0117 114.736 38.805C114.846 38.595 114.999 38.4217 115.196 38.285C115.392 38.145 115.627 38.035 115.901 37.955C116.157 37.885 116.444 37.825 116.761 37.775C117.081 37.7217 117.404 37.6733 117.731 37.63C118.057 37.5867 118.362 37.545 118.646 37.505L118.326 37.69C118.336 37.21 118.239 36.855 118.036 36.625C117.836 36.395 117.489 36.28 116.996 36.28C116.669 36.28 116.382 36.355 116.136 36.505C115.892 36.6517 115.721 36.8917 115.621 37.225L114.776 36.97C114.906 36.4967 115.157 36.125 115.531 35.855C115.904 35.585 116.396 35.45 117.006 35.45C117.496 35.45 117.916 35.5383 118.266 35.715C118.619 35.8883 118.872 36.1517 119.026 36.505C119.102 36.6717 119.151 36.8533 119.171 37.05C119.191 37.2433 119.201 37.4467 119.201 37.66V41H118.411V39.705L118.596 39.825C118.392 40.2617 118.107 40.5917 117.741 40.815C117.377 41.0383 116.934 41.15 116.411 41.15ZM116.546 40.405C116.866 40.405 117.142 40.3483 117.376 40.235C117.612 40.1183 117.802 39.9667 117.946 39.78C118.089 39.59 118.182 39.3833 118.226 39.16C118.276 38.9933 118.302 38.8083 118.306 38.605C118.312 38.3983 118.316 38.24 118.316 38.13L118.626 38.265C118.336 38.305 118.051 38.3433 117.771 38.38C117.491 38.4167 117.226 38.4567 116.976 38.5C116.726 38.54 116.501 38.5883 116.301 38.645C116.154 38.6917 116.016 38.7517 115.886 38.825C115.759 38.8983 115.656 38.9933 115.576 39.11C115.499 39.2233 115.461 39.365 115.461 39.535C115.461 39.6817 115.497 39.8217 115.571 39.955C115.647 40.0883 115.764 40.1967 115.921 40.28C116.081 40.3633 116.289 40.405 116.546 40.405ZM122.981 41.15C122.474 41.15 122.047 41.025 121.701 40.775C121.354 40.5217 121.091 40.18 120.911 39.75C120.734 39.3167 120.646 38.8317 120.646 38.295C120.646 37.7517 120.734 37.265 120.911 36.835C121.091 36.405 121.354 36.0667 121.701 35.82C122.051 35.5733 122.479 35.45 122.986 35.45C123.486 35.45 123.916 35.575 124.276 35.825C124.639 36.0717 124.917 36.41 125.111 36.84C125.304 37.27 125.401 37.755 125.401 38.295C125.401 38.835 125.304 39.32 125.111 39.75C124.917 40.18 124.639 40.5217 124.276 40.775C123.916 41.025 123.484 41.15 122.981 41.15ZM120.496 41V33.8H121.391V37.025H121.291V41H120.496ZM122.871 40.335C123.227 40.335 123.522 40.245 123.756 40.065C123.989 39.885 124.164 39.6417 124.281 39.335C124.397 39.025 124.456 38.6783 124.456 38.295C124.456 37.915 124.397 37.5717 124.281 37.265C124.167 36.9583 123.991 36.715 123.751 36.535C123.514 36.355 123.212 36.265 122.846 36.265C122.496 36.265 122.206 36.3517 121.976 36.525C121.746 36.695 121.574 36.9333 121.461 37.24C121.347 37.5433 121.291 37.895 121.291 38.295C121.291 38.6883 121.346 39.04 121.456 39.35C121.569 39.6567 121.742 39.8983 121.976 40.075C122.209 40.2483 122.507 40.335 122.871 40.335ZM131.514 41C131.194 41.0633 130.877 41.0883 130.564 41.075C130.254 41.065 129.977 41.0033 129.734 40.89C129.49 40.7733 129.305 40.5933 129.179 40.35C129.072 40.1367 129.014 39.9217 129.004 39.705C128.997 39.485 128.994 39.2367 128.994 38.96V34.1H129.884V38.92C129.884 39.14 129.885 39.3283 129.889 39.485C129.895 39.6417 129.93 39.7767 129.994 39.89C130.114 40.1033 130.304 40.2283 130.564 40.265C130.827 40.3017 131.144 40.2917 131.514 40.235V41ZM127.899 36.335V35.6H131.514V36.335H127.899ZM134.726 41.15C134.196 41.15 133.732 41.0333 133.336 40.8C132.942 40.5633 132.636 40.235 132.416 39.815C132.196 39.3917 132.086 38.8983 132.086 38.335C132.086 37.745 132.194 37.235 132.411 36.805C132.627 36.3717 132.929 36.0383 133.316 35.805C133.706 35.5683 134.162 35.45 134.686 35.45C135.229 35.45 135.691 35.575 136.071 35.825C136.454 36.075 136.741 36.4317 136.931 36.895C137.124 37.3583 137.207 37.91 137.181 38.55H136.281V38.23C136.271 37.5667 136.136 37.0717 135.876 36.745C135.616 36.415 135.229 36.25 134.716 36.25C134.166 36.25 133.747 36.4267 133.461 36.78C133.174 37.1333 133.031 37.64 133.031 38.3C133.031 38.9367 133.174 39.43 133.461 39.78C133.747 40.13 134.156 40.305 134.686 40.305C135.042 40.305 135.352 40.2233 135.616 40.06C135.879 39.8967 136.086 39.6617 136.236 39.355L137.091 39.65C136.881 40.1267 136.564 40.4967 136.141 40.76C135.721 41.02 135.249 41.15 134.726 41.15ZM132.731 38.55V37.835H136.721V38.55H132.731ZM140.334 41.145C139.69 41.145 139.162 41.005 138.749 40.725C138.339 40.4417 138.087 40.0467 137.994 39.54L138.904 39.395C138.977 39.6883 139.145 39.9217 139.409 40.095C139.672 40.265 139.999 40.35 140.389 40.35C140.759 40.35 141.049 40.2733 141.259 40.12C141.469 39.9667 141.574 39.7583 141.574 39.495C141.574 39.3417 141.539 39.2183 141.469 39.125C141.399 39.0283 141.254 38.9383 141.034 38.855C140.817 38.7717 140.489 38.6717 140.049 38.555C139.572 38.4283 139.197 38.2967 138.924 38.16C138.65 38.0233 138.455 37.865 138.339 37.685C138.222 37.505 138.164 37.2867 138.164 37.03C138.164 36.7133 138.25 36.4367 138.424 36.2C138.597 35.96 138.839 35.775 139.149 35.645C139.462 35.515 139.825 35.45 140.239 35.45C140.649 35.45 141.015 35.515 141.339 35.645C141.662 35.775 141.922 35.96 142.119 36.2C142.319 36.4367 142.437 36.7133 142.474 37.03L141.564 37.195C141.52 36.905 141.38 36.6767 141.144 36.51C140.91 36.3433 140.609 36.255 140.239 36.245C139.889 36.2317 139.604 36.2933 139.384 36.43C139.167 36.5667 139.059 36.7517 139.059 36.985C139.059 37.115 139.099 37.2267 139.179 37.32C139.262 37.4133 139.414 37.5017 139.634 37.585C139.857 37.6683 140.18 37.7633 140.604 37.87C141.08 37.99 141.455 38.1217 141.729 38.265C142.005 38.405 142.202 38.5717 142.319 38.765C142.435 38.955 142.494 39.19 142.494 39.47C142.494 39.99 142.302 40.4 141.919 40.7C141.535 40.9967 141.007 41.145 140.334 41.145ZM146.611 41C146.291 41.0633 145.975 41.0883 145.661 41.075C145.351 41.065 145.075 41.0033 144.831 40.89C144.588 40.7733 144.403 40.5933 144.276 40.35C144.17 40.1367 144.111 39.9217 144.101 39.705C144.095 39.485 144.091 39.2367 144.091 38.96V34.1H144.981V38.92C144.981 39.14 144.983 39.3283 144.986 39.485C144.993 39.6417 145.028 39.7767 145.091 39.89C145.211 40.1033 145.401 40.2283 145.661 40.265C145.925 40.3017 146.241 40.2917 146.611 40.235V41ZM142.996 36.335V35.6H146.611V36.335H142.996Z" fill="#338F58"/>
</svg>
