<svg xmlns="http://www.w3.org/2000/svg" width="146.81" height="39.149" viewBox="0 0 146.81 39.149">
  <g id="Group_43236" data-name="Group 43236" transform="translate(-300.345 -644.805)">
    <text id="Pharmarun" transform="translate(347.155 670.932)" fill="#000921" font-size="21" font-family="Helvetica" letter-spacing="-0.025em"><tspan x="0" y="0">Pharmarun</tspan></text>
    <rect id="Rectangle_45" data-name="Rectangle 45" width="7.811" height="7.811" transform="translate(315.967 668.332)" fill="#00c7b8"/>
    <rect id="Rectangle_46" data-name="Rectangle 46" width="7.811" height="7.811" transform="translate(308.156 660.521)" fill="#00c7b8"/>
    <rect id="Rectangle_47" data-name="Rectangle 47" width="7.811" height="7.811" transform="translate(300.345 668.332)" fill="#00c7b8"/>
    <path id="Path_19" data-name="Path 19" d="M350.134,779.052h-7.811l7.811-7.811Z" transform="translate(-34.166 -102.909)" fill="#541aa8"/>
    <rect id="Rectangle_48" data-name="Rectangle 48" width="7.811" height="7.811" transform="translate(308.156 676.143)" fill="#00c7b8"/>
    <g id="Group_22" data-name="Group 22" transform="translate(308.113 644.805)">
      <path id="Path_20" data-name="Path 20" d="M355.436,644.8H342.089v11.819h7.8V652.6h5.549a10.2,10.2,0,0,1,10.187,10.187v5.549h-3.965v7.8h11.763V662.79A18.007,18.007,0,0,0,355.436,644.8Z" transform="translate(-342.089 -644.805)" fill="#541aa8"/>
    </g>
  </g>
</svg>
