<?xml version="1.0" encoding="utf-8"?>
<!-- Generator: Adobe Illustrator 24.3.0, SVG Export Plug-In . SVG Version: 6.00 Build 0)  -->
<svg version="1.1" id="Layer_1" xmlns="http://www.w3.org/2000/svg" xmlns:xlink="http://www.w3.org/1999/xlink" x="0px" y="0px"
	 viewBox="0 0 1366 768" style="enable-background:new 0 0 1366 768;" xml:space="preserve">
<style type="text/css">
	.st0{fill:#FFFFFF;}
	.st1{clip-path:url(#SVGID_2_);fill:#FFFFFF;}
	.st2{clip-path:url(#SVGID_4_);fill:#FFFFFF;}
	.st3{clip-path:url(#SVGID_6_);fill:#FFFFFF;}
	.st4{clip-path:url(#SVGID_8_);fill:#FFFFFF;}
	.st5{clip-path:url(#SVGID_10_);fill:#FFFFFF;}
	.st6{clip-path:url(#SVGID_12_);fill:#FFFFFF;}
</style>
<polygon class="st0" points="85.65,413.69 85.65,426.18 111.51,426.18 111.51,503.76 127.38,503.76 127.38,426.18 153.11,426.18 
	153.11,413.69 "/>
<g>
	<defs>
		<rect id="SVGID_1_" x="85.55" y="45.7" width="1194.64" height="676.54"/>
	</defs>
	<clipPath id="SVGID_2_">
		<use xlink:href="#SVGID_1_"  style="overflow:visible;"/>
	</clipPath>
	<path class="st1" d="M148.94,471.4v-2.07c0-21.72,13.12-34.33,32.11-34.33c20.14,0,31.83,12.36,31.83,33.81v1.94
		c0,21.83-13.12,34.3-31.97,34.3C160.5,505.05,148.94,492.57,148.94,471.4 M197.55,472.05v-3.38c0-17.55-7.41-22.35-16.77-22.35
		c-10.52,0-16.49,7.26-16.49,21.83v3.25c0,17.55,7.41,22.35,16.89,22.35C191.44,493.74,197.55,486.73,197.55,472.05"/>
	<path class="st1" d="M227.56,487.25v-39.52h-9.23v-11.42h9.23v-15.99h14.81v15.99h16v11.42h-16v37.31c0,5.85,2.09,7.93,9.1,7.93
		c2.6,0,5.46-0.39,7.93-0.91v9.75c-2.73,1.41-6.23,2.86-12.61,2.86C235.22,504.67,227.56,499.99,227.56,487.25"/>
	<path class="st1" d="M265.88,485.82c0-12.35,8.32-18.19,21.71-20l16.12-1.96v-5.33c0-9.23-4.16-11.43-15.59-11.43
		c-6.51,0-12.35,1.03-16.49,1.96v-10.27c6.23-2.46,13.51-3.77,22.35-3.77c15.46,0,24.55,6.1,24.55,20.13v48.62H306.3l-1.29-5.45
		h-0.78c-3.12,3.9-8.58,6.74-17.42,6.74C274.59,505.05,265.88,498.82,265.88,485.82 M303.7,490.5v-16.9l-12.74,1.3
		c-6.88,0.65-10.26,3.38-10.26,10.13c0,6.64,4.29,9.49,10.53,9.49C296.29,494.53,301.22,492.83,303.7,490.5"/>
</g>
<rect x="333.32" y="407.71" class="st0" width="14.81" height="96.05"/>
<polygon class="st0" points="388.94,413.68 404.79,413.68 404.79,450.99 443.65,450.99 443.65,413.68 459.51,413.68 459.51,503.75 
	443.65,503.75 443.65,463.46 404.79,463.46 404.79,503.75 388.94,503.75 "/>
<g>
	<defs>
		<rect id="SVGID_3_" x="85.55" y="45.7" width="1194.64" height="676.54"/>
	</defs>
	<clipPath id="SVGID_4_">
		<use xlink:href="#SVGID_3_"  style="overflow:visible;"/>
	</clipPath>
	<path class="st2" d="M472.1,470.87v-1.82c0-22.74,13.77-34.04,30.93-34.04c19.75,0,28.46,11.3,28.46,32.75v6.36h-44.06
		c0.9,14.29,8.19,19.1,21.06,19.1c8.7,0,14.81-1.94,20.8-4.81v10.27c-4.43,3-12.35,6.38-23.79,6.38
		C483.26,505.06,472.1,492.32,472.1,470.87 M487.44,463.86h28.98c0-12.87-4.68-17.81-13.78-17.81
		C495.87,446.05,488.47,449.81,487.44,463.86"/>
	<path class="st2" d="M538.36,485.82c0-12.35,8.32-18.19,21.71-20l16.12-1.96v-5.33c0-9.23-4.16-11.43-15.59-11.43
		c-6.51,0-12.35,1.03-16.49,1.96v-10.27c6.23-2.46,13.51-3.77,22.35-3.77c15.46,0,24.55,6.1,24.55,20.13v48.62h-12.22l-1.29-5.45
		h-0.78c-3.12,3.9-8.57,6.74-17.42,6.74C547.07,505.05,538.36,498.82,538.36,485.82 M576.18,490.5v-16.9l-12.74,1.3
		c-6.88,0.65-10.26,3.38-10.26,10.13c0,6.64,4.29,9.49,10.53,9.49C568.77,494.53,573.72,492.83,576.18,490.5"/>
</g>
<rect x="605.8" y="407.71" class="st0" width="14.81" height="96.05"/>
<g>
	<defs>
		<rect id="SVGID_5_" x="85.55" y="45.7" width="1194.64" height="676.54"/>
	</defs>
	<clipPath id="SVGID_6_">
		<use xlink:href="#SVGID_5_"  style="overflow:visible;"/>
	</clipPath>
	<path class="st3" d="M639.59,487.25v-39.52h-9.23v-11.42h9.23v-15.99h14.81v15.99h16v11.42h-16v37.31c0,5.85,2.09,7.93,9.1,7.93
		c2.6,0,5.46-0.39,7.93-0.91v9.75c-2.73,1.41-6.23,2.86-12.61,2.86C647.25,504.67,639.59,499.99,639.59,487.25"/>
	<path class="st3" d="M681.94,407.71h14.81v34.19h0.65c5.46-4.04,13.39-6.9,21.71-6.9c13,0,19.62,5.45,19.62,18.59v50.17h-14.82
		v-46.55c0-7.02-2.33-9.87-11.68-9.87c-5.2,0-11.32,1.81-15.48,3.77v52.65h-14.81V407.71z"/>
</g>
<polygon class="st0" points="797.59,426.17 771.74,426.17 771.74,413.69 839.19,413.69 839.19,426.17 813.45,426.17 813.45,503.76 
	797.59,503.76 "/>
<g>
	<defs>
		<rect id="SVGID_7_" x="85.55" y="45.7" width="1194.64" height="676.54"/>
	</defs>
	<clipPath id="SVGID_8_">
		<use xlink:href="#SVGID_7_"  style="overflow:visible;"/>
	</clipPath>
	<path class="st4" d="M841.5,436.31h14.16v7.67h0.65c3.78-4.68,10.66-8.46,17.82-8.46c1.68,0,3.5,0.27,4.15,0.66v13
		c-1.69-0.27-3.9-0.4-5.32-0.4c-6.24,0-12.22,1.82-16.65,4.56v50.42H841.5V436.31z"/>
	<path class="st4" d="M887.11,485.3v-49h14.81v46.27c0,7.41,2.61,10.39,11.17,10.39c5.98,0,10.93-2.09,15.22-4.16v-52.51h14.81
		v67.45h-12.87l-1.29-5.85h-0.65c-5.71,4.16-12.22,7.16-20.68,7.16C894.52,505.06,887.11,498.55,887.11,485.3"/>
	<path class="st4" d="M954.04,500.38v-11.06c5.58,2.22,10.78,4.17,20.14,4.17c9.49,0,13.52-3,13.52-8.19
		c0-4.94-2.61-7.16-10.01-8.85l-6.36-1.42c-10.4-2.35-17.29-7.41-17.29-19.49c0-12.48,7.93-20.54,24.96-20.54
		c9.23,0,15.08,1.81,19.36,3.9v11.04c-3.77-1.55-10.52-3.51-18.06-3.51c-8.06,0-12.22,2.61-12.22,7.8c0,4.94,2.73,6.75,9.22,8.31
		l6.38,1.45c13.26,2.99,18.45,8.19,18.45,20.14c0,13.77-9.49,20.8-25.74,20.8C967.56,504.93,959.62,503.36,954.04,500.38"/>
	<path class="st4" d="M1015.5,487.25v-39.52h-9.23v-11.42h9.23v-15.99h14.81v15.99h16v11.42h-16v37.31c0,5.85,2.09,7.93,9.1,7.93
		c2.6,0,5.46-0.39,7.93-0.91v9.75c-2.73,1.41-6.23,2.86-12.61,2.86C1023.16,504.67,1015.5,499.99,1015.5,487.25"/>
</g>
<polygon class="st0" points="1083.45,413.68 1099.31,413.68 1099.31,491.28 1137.51,491.28 1137.51,503.75 1083.45,503.75 "/>
<g>
	<defs>
		<rect id="SVGID_9_" x="85.55" y="45.7" width="1194.64" height="676.54"/>
	</defs>
	<clipPath id="SVGID_10_">
		<use xlink:href="#SVGID_9_"  style="overflow:visible;"/>
	</clipPath>
	<path class="st5" d="M1148.3,487.25v-39.52h-9.23v-11.42h9.23v-15.99h14.81v15.99h16v11.42h-16v37.31c0,5.85,2.09,7.93,9.1,7.93
		c2.6,0,5.45-0.39,7.93-0.91v9.75c-2.73,1.41-6.23,2.86-12.61,2.86C1155.96,504.67,1148.3,499.99,1148.3,487.25"/>
	<path class="st5" d="M1187.14,472.04v-1.68c0-24.83,12.61-35.36,30.16-35.36c7.93,0,13.12,2.09,16.25,3.9v-31.19h14.94v96.04
		h-12.74l-1.3-5.33h-0.64c-4.03,4.03-10.39,6.64-19.1,6.64C1201.31,505.06,1187.14,496.61,1187.14,472.04 M1233.54,488.81v-38.72
		c-2.48-2.09-7.81-3.51-13.77-3.51c-10.78,0-17.29,5.57-17.29,22.22v2.6c0,17.03,7.02,22.1,17.42,22.1
		C1226.27,493.49,1230.94,490.9,1233.54,488.81"/>
</g>
<rect x="1264.48" y="488.56" class="st0" width="15.72" height="15.2"/>
<polygon class="st0" points="85.59,45.71 85.59,99.3 175.4,99.3 175.4,371.51 247.31,371.51 247.31,99.3 337.59,99.3 337.59,45.71 
	"/>
<polygon class="st0" points="569.85,45.71 569.85,176.88 445.75,176.88 445.75,45.71 373.8,45.71 373.8,371.51 445.75,371.51 
	445.75,230.93 569.85,230.93 569.85,371.51 641.78,371.51 641.78,45.71 "/>
<polygon class="st0" points="678.02,45.71 678.02,99.3 767.81,99.3 767.81,371.51 839.74,371.51 839.74,99.3 930.01,99.3 
	930.01,45.71 "/>
<path class="st0" d="M106.89,629.61h0.23l6.97,19.86h-14.02L106.89,629.61z M103.26,619.3l-17.72,49.32h7.96l4.42-12.67h18.36
	l4.49,12.67h8.97l-17.58-49.32H103.26z"/>
<g>
	<defs>
		<rect id="SVGID_11_" x="85.55" y="45.7" width="1194.64" height="676.54"/>
	</defs>
	<clipPath id="SVGID_12_">
		<use xlink:href="#SVGID_11_"  style="overflow:visible;"/>
	</clipPath>
	<path class="st6" d="M147.14,631.68h7.76v3.19h0.36c3.13-2.12,6.97-3.9,11.3-3.9c4.21,0,7.12,1.28,8.83,4.12h0.36
		c3.85-2.56,8.06-4.12,12.24-4.12c6.48,0,10.26,2.92,10.26,10.11v27.54h-8.19v-25.56c0-3.76-1.35-5.32-5.69-5.32
		c-2.43,0-4.99,0.78-7.76,2.13c0.07,0.57,0.14,1.07,0.14,1.71v27.04h-8.12v-25.56c0-3.76-1.42-5.32-5.69-5.32
		c-2.64,0-5.42,0.92-7.69,2.06v28.82h-8.12V631.68z"/>
	<path class="st6" d="M203.9,650.61v-0.98c0-12.47,7.54-18.66,16.93-18.66c10.81,0,15.58,6.2,15.58,17.94v3.5h-24.13
		c0.5,7.83,4.48,10.45,11.53,10.45c4.78,0,8.12-1.07,11.39-2.62v5.62c-2.41,1.62-6.75,3.48-13.02,3.48
		C210.01,669.34,203.9,662.36,203.9,650.61 M212.29,646.77h15.88c0-7.05-2.56-9.75-7.55-9.75
		C216.92,637.02,212.86,639.08,212.29,646.77"/>
	<path class="st6" d="M242.37,631.68h7.76v3.19h0.36c3.13-2.12,6.97-3.9,11.3-3.9c4.21,0,7.12,1.28,8.83,4.12h0.36
		c3.85-2.56,8.06-4.12,12.24-4.12c6.48,0,10.26,2.92,10.26,10.11v27.54h-8.19v-25.56c0-3.76-1.35-5.32-5.69-5.32
		c-2.43,0-4.99,0.78-7.76,2.13c0.07,0.57,0.14,1.07,0.14,1.71v27.04h-8.12v-25.56c0-3.76-1.42-5.32-5.69-5.32
		c-2.64,0-5.42,0.92-7.69,2.06v28.82h-8.12V631.68z"/>
	<path class="st6" d="M301.25,667.35v-51.32h8.12v18.07h0.37c2.69-1.85,6.03-3.13,10.95-3.13c6.91,0,14.09,4.19,14.09,17.87v1
		c0,12.95-6.61,19.64-19.14,19.64C310.72,669.47,304.68,668.62,301.25,667.35 M326.39,650.98v-1.42c0-9.11-3.07-11.96-9.54-11.96
		c-3.06,0-5.97,1.13-7.48,1.85v22.7c1.43,0.5,3.55,1.07,6.77,1.07C321.61,663.22,326.39,660.66,326.39,650.98"/>
	<path class="st6" d="M338.82,650.61v-0.98c0-12.47,7.54-18.66,16.93-18.66c10.81,0,15.58,6.2,15.58,17.94v3.5h-24.13
		c0.5,7.83,4.49,10.45,11.53,10.45c4.78,0,8.12-1.07,11.39-2.62v5.62c-2.41,1.62-6.75,3.48-13.02,3.48
		C344.93,669.34,338.82,662.36,338.82,650.61 M347.21,646.77h15.88c0-7.05-2.56-9.75-7.55-9.75
		C351.84,637.02,347.78,639.08,347.21,646.77"/>
	<path class="st6" d="M377.29,631.68h7.76v4.19h0.36c2.05-2.56,5.84-4.62,9.75-4.62c0.91,0,1.92,0.14,2.28,0.36v7.11
		c-0.92-0.13-2.13-0.2-2.93-0.2c-3.41,0-6.68,1-9.1,2.49v27.61h-8.12V631.68z"/>
	<path class="st6" d="M413.42,650.91v-1.15c0-11.89,7.19-18.78,17.58-18.78c11.03,0,17.43,6.75,17.43,18.5v1.08
		c0,11.96-7.18,18.78-17.5,18.78C419.74,669.33,413.42,662.51,413.42,650.91 M440.03,651.25v-1.85c0-9.6-4.05-12.24-9.17-12.24
		c-5.77,0-9.04,3.98-9.04,11.97v1.78c0,9.61,4.05,12.23,9.25,12.23C436.69,663.14,440.03,659.3,440.03,651.25"/>
	<path class="st6" d="M456.59,637.95h-5.2v-6.26h5.2v-4.7c0-8.05,5.05-11.6,12.03-11.6c3.28,0,5.56,0.64,6.9,1.21v5.47
		c-0.98-0.2-2.62-0.5-4.82-0.5c-3.93,0-5.98,1.79-5.98,6.2v3.92h8.11v6.26h-8.11v30.68h-8.12V637.95z"/>
	<path class="st6" d="M602.31,541.25c-49.99,0-90.47,40.5-90.47,90.5c0,50.01,40.48,90.5,90.47,90.5s90.48-40.49,90.48-90.5
		C692.8,581.75,652.31,541.25,602.31,541.25 M602.31,710.62c-43.57,0-78.92-35.31-78.92-78.87c0-43.58,35.35-78.87,78.92-78.87
		c43.57,0,78.91,35.29,78.91,78.87C681.22,675.3,645.88,710.62,602.31,710.62 M647.31,668.61h-93.76c-1.97-3.13-3.71-6.16-5.19-9.12
		c-3.52-7.84-5.55-16.64-5.55-25.86c0-18.14,7.65-34.46,19.8-45.79c0.2-0.14,0.41-0.27,0.7-0.27c0.52,0,0.97,0.41,0.97,0.95
		c0,0.12-0.01,0.23-0.07,0.36c-2.51,4.56-6.35,12.47-6.35,23.33c0,8.7,5.58,21.76,12.81,26.34c0,0-4.74-18.95,4.68-33.93
		c7.31-11.64,22.08-21.47,17.49-39.35c0,0-0.04-0.11-0.04-0.25c0.04-0.5,0.45-0.92,1.01-0.92c0.3,0,0.47,0.06,0.47,0.06
		c4.65,2.32,19.48,15.53,14.41,32.52c-3.15,10.59-13.47,18.96-3.89,32.92c2.82-24.11,27.25-22.02,20.62-51.51
		c0,0-0.05-0.11-0.05-0.17c0-0.51,0.47-0.92,1.01-0.92c0.33,0,0.56,0.17,0.56,0.17c6.61,4.15,29.27,19.49,14.78,42.04
		C626.61,642.68,639.14,659.59,647.31,668.61 M559.75,676.58h86.8c-4.41,4.67-9.54,8.65-15.17,11.72h-56.46
		C569.3,685.23,564.17,681.25,559.75,676.58 M654.95,665.35c-17.75-13.73-15.72-41.79,3.65-53.63c0.09-0.04,0.2-0.07,0.33-0.07
		c0.57,0,1.02,0.49,1.03,1c0,0.13-0.05,0.28-0.05,0.28C650.01,636.97,671.99,636.7,654.95,665.35 M1075.43,668.61v-30.17
		l-22.83-42.22h15.13l8.63,18.6c2.43,5.34,4.24,9.43,6.33,14.37c1.9-4.62,3.95-9.14,6.43-14.37l8.69-18.6h14.9l-24.02,41.88v30.51
		H1075.43z M1011.41,607.26h-20.64v-11.04h54.67v11.04h-20.83v61.35h-13.2V607.26z M947.1,629.2h7.84c8.91,0,14.37-4.73,14.37-11.92
		c0-7.84-5.46-11.6-14.05-11.6c-4.17,0-6.88,0.31-8.16,0.65V629.2z M934,597.3c5.06-0.97,12.38-1.6,19.99-1.6
		c10.36,0,17.4,1.69,22.34,5.79c3.98,3.34,6.23,8.37,6.23,14.6c0,9.33-6.35,15.69-13.24,18.04c5.28,2.26,8.41,7.31,10.1,14.29
		c2.37,9.04,4.34,17.42,5.71,20.19H971.6c-1.07-2.13-2.93-8.06-4.83-17.05c-2.13-9.48-5.49-12.47-13-12.69h-6.66v29.74H934V597.3z
		 M917.17,636.5h-27.3v21.27h30.51v10.84h-43.74v-72.39h42.16v10.85h-28.94v18.68h27.3V636.5z M827.53,659.05
		c1.74,0.33,4.03,0.33,7.02,0.33c8.5,0,16.12-3.1,16.12-12.03c0-8.48-7.41-11.92-16.57-11.92h-6.56V659.05z M827.53,625.87h6.84
		c9.22,0,14.27-4.31,14.27-10.42c0-6.87-5.18-9.98-13.53-9.98c-3.87,0-6.14,0.2-7.57,0.51V625.87z M814.48,597.3
		c4.18-0.85,11.81-1.6,19.3-1.6c9.67,0,15.81,1.27,20.65,4.59c4.49,2.71,7.5,7.44,7.5,13.64c0,6.7-4.22,12.68-12.03,15.59
		c7.6,2.26,14.61,8.28,14.61,18.15c0,6.43-2.81,11.47-6.87,15.05c-5.18,4.38-13.64,6.62-26.96,6.62c-7.31,0-12.81-0.5-16.21-0.95
		V597.3z M798.57,668.61h-13.22v-72.39h13.22V668.61z M729,596.22h13.25v61.33H772v11.06h-43V596.22z"/>
</g>
</svg>
