<svg width="141" height="36" viewBox="0 0 141 36" fill="none" xmlns="http://www.w3.org/2000/svg">
<path d="M28.852 0.555636V25.8276H22.696V10.6716L17.044 25.8276H12.076L6.388 10.6356V25.8276H0.232V0.555636H7.504L14.596 18.0516L21.616 0.555636H28.852ZM53.7989 5.73964L41.1989 35.3676H34.5749L39.1829 25.1436L31.0109 5.73964H37.8869L42.5309 18.3036L47.1389 5.73964H53.7989Z" fill="#475569"/>
<path d="M62.181 0.555636V25.8276H56.025V0.555636H62.181ZM77.8382 20.6076V25.8276H74.7062C72.4742 25.8276 70.7342 25.2876 69.4862 24.2076C68.2382 23.1036 67.6142 21.3156 67.6142 18.8436V10.8516H65.1662V5.73964H67.6142V0.843637H73.7702V5.73964H77.8022V10.8516H73.7702V18.9156C73.7702 19.5156 73.9142 19.9476 74.2022 20.2116C74.4902 20.4756 74.9702 20.6076 75.6422 20.6076H77.8382ZM101.103 5.73964V25.8276H94.9472V23.0916C94.3232 23.9796 93.4712 24.6996 92.3912 25.2516C91.3352 25.7796 90.1592 26.0436 88.8632 26.0436C87.3272 26.0436 85.9712 25.7076 84.7952 25.0356C83.6192 24.3396 82.7072 23.3436 82.0592 22.0476C81.4112 20.7516 81.0872 19.2276 81.0872 17.4756V5.73964H87.2072V16.6476C87.2072 17.9916 87.5552 19.0356 88.2512 19.7796C88.9472 20.5236 89.8832 20.8956 91.0592 20.8956C92.2592 20.8956 93.2072 20.5236 93.9032 19.7796C94.5992 19.0356 94.9472 17.9916 94.9472 16.6476V5.73964H101.103ZM111.681 9.08764C112.401 7.98364 113.301 7.11964 114.381 6.49564C115.461 5.84764 116.661 5.52364 117.981 5.52364V12.0396H116.289C114.753 12.0396 113.601 12.3756 112.833 13.0476C112.065 13.6956 111.681 14.8476 111.681 16.5036V25.8276H105.525V5.73964H111.681V9.08764ZM119.699 15.7476C119.699 13.6836 120.083 11.8716 120.851 10.3116C121.643 8.75164 122.711 7.55164 124.055 6.71164C125.399 5.87164 126.899 5.45164 128.555 5.45164C129.971 5.45164 131.207 5.73963 132.263 6.31563C133.343 6.89164 134.171 7.64764 134.747 8.58364V5.73964H140.903V25.8276H134.747V22.9836C134.147 23.9196 133.307 24.6756 132.227 25.2516C131.171 25.8276 129.935 26.1156 128.519 26.1156C126.887 26.1156 125.399 25.6956 124.055 24.8556C122.711 23.9916 121.643 22.7796 120.851 21.2196C120.083 19.6356 119.699 17.8116 119.699 15.7476ZM134.747 15.7836C134.747 14.2476 134.315 13.0356 133.451 12.1476C132.611 11.2596 131.579 10.8156 130.355 10.8156C129.131 10.8156 128.087 11.2596 127.223 12.1476C126.383 13.0116 125.963 14.2116 125.963 15.7476C125.963 17.2836 126.383 18.5076 127.223 19.4196C128.087 20.3076 129.131 20.7516 130.355 20.7516C131.579 20.7516 132.611 20.3076 133.451 19.4196C134.315 18.5316 134.747 17.3196 134.747 15.7836Z" fill="#03731F"/>
</svg>
